<?xml version="1.0" encoding="UTF-8" standalone="no"?>
<svg
   width="63.019474"
   height="49.690525"
   viewBox="0 0 63.019474 49.690525"
   version="1.1"
   id="svg18"
   sodipodi:docname="checkmark.svg"
   inkscape:version="1.1 (c68e22c387, 2021-05-23)"
   xmlns:inkscape="http://www.inkscape.org/namespaces/inkscape"
   xmlns:sodipodi="http://sodipodi.sourceforge.net/DTD/sodipodi-0.dtd"
   xmlns="http://www.w3.org/2000/svg"
   xmlns:svg="http://www.w3.org/2000/svg"
   xmlns:rdf="http://www.w3.org/1999/02/22-rdf-syntax-ns#"
   xmlns:cc="http://creativecommons.org/ns#"
   xmlns:dc="http://purl.org/dc/elements/1.1/">
  <defs
     id="defs22" />
  <sodipodi:namedview
     id="namedview20"
     pagecolor="#ffffff"
     bordercolor="#666666"
     borderopacity="1.0"
     inkscape:pageshadow="2"
     inkscape:pageopacity="0.0"
     inkscape:pagecheckerboard="0"
     showgrid="false"
     fit-margin-top="0"
     fit-margin-left="0"
     fit-margin-right="0"
     fit-margin-bottom="0"
     inkscape:zoom="2.7733333"
     inkscape:cx="-71.935096"
     inkscape:cy="25.060096"
     inkscape:window-width="1920"
     inkscape:window-height="1017"
     inkscape:window-x="-8"
     inkscape:window-y="-8"
     inkscape:window-maximized="1"
     inkscape:current-layer="Designs" />
  <!-- Generator: sketchtool 52.2 (67145) - http://www.bohemiancoding.com/sketch -->
  <title
     id="title2">23CE74ED-8A2F-4E10-A310-96385B377176</title>
  <desc
     id="desc4">Created with sketchtool.</desc>
  <g
     id="Designs"
     stroke="none"
     stroke-width="1"
     fill="none"
     fill-rule="evenodd"
     transform="translate(-118.21531,-125.1507)">
    <g
       id="engrave/10-1_update-success-copy-2"
       transform="translate(-362)">
      <rect
         fill="#182254"
         x="0"
         y="0"
         width="1024"
         height="600"
         id="rect6" />
      <g
         id="g14"
         transform="translate(224,100)">
        <g
           id="icon/success"
           transform="translate(238)">
          <g
             id="Group-2-Copy">
            <g
               id="g10">
              <path
                 d="M 50,100 C 22.385762,100 0,77.614238 0,50 0,22.385762 22.385762,0 50,0 c 27.614238,0 50,22.385762 50,50 0,27.614238 -22.385762,50 -50,50 z M 41.7855,62.080753 26.990207,42.486987 c -1.664042,-2.203731 -4.79949,-2.641235 -7.00322,-0.977194 -2.203731,1.664041 -2.641235,4.79949 -0.977194,7.00322 l 18.5,24.5 c 1.910964,2.530736 5.664851,2.666069 7.75309,0.27951 l 35,-40 c 1.818411,-2.078183 1.607823,-5.236996 -0.47036,-7.055407 -2.078183,-1.81841 -5.236996,-1.607822 -7.055407,0.470361 z"
                 id="Combined-Shape"
                 fill="#23ffbd" />
              <g
                 id="Group"
                 transform="translate(18,25)" />
            </g>
          </g>
        </g>
      </g>
    </g>
    <path
       style="fill:none;stroke-width:11.5839"
       d="M -348.13702,194.71154 V 0 H 150 648.13702 V 194.71154 389.42308 H 150 -348.13702 Z m 508.046,4.49628 c 20.69062,-4.5585 35.87524,-20.14118 39.51804,-40.55397 0.81447,-4.56396 0.81447,-12.74374 0,-17.3077 C 195.13413,117.29053 174.38387,99.884059 150,99.884059 c -21.72793,0 -40.71645,13.714241 -47.59684,34.376281 -1.77635,5.33437 -2.441465,9.62242 -2.441465,15.73966 0,6.11724 0.665115,10.40529 2.441465,15.73966 5.9704,17.92929 21.03801,30.73 39.84444,33.84993 3.99613,0.66294 13.89025,0.44907 17.66138,-0.38177 z"
       id="path79" />
    <path
       style="fill:none;stroke-width:11.5839"
       d="M -348.13702,194.71154 V 0 H 150 648.13702 V 194.71154 389.42308 H 150 -348.13702 Z m 508.046,4.49628 c 20.69062,-4.5585 35.87524,-20.14118 39.51804,-40.55397 0.81447,-4.56396 0.81447,-12.74374 0,-17.3077 C 195.13413,117.29053 174.38387,99.884059 150,99.884059 c -21.72793,0 -40.71645,13.714241 -47.59684,34.376281 -1.77635,5.33437 -2.441465,9.62242 -2.441465,15.73966 0,6.11724 0.665115,10.40529 2.441465,15.73966 5.9704,17.92929 21.03801,30.73 39.84444,33.84993 3.99613,0.66294 13.89025,0.44907 17.66138,-0.38177 z"
       id="path155" />
    <path
       style="fill:#ffffff;stroke-width:11.5839"
       d="M -348.13702,194.71154 V 0 H 150 648.13702 V 194.71154 389.42308 H 150 -348.13702 Z m 508.046,4.49628 c 20.69062,-4.5585 35.87524,-20.14118 39.51804,-40.55397 0.81447,-4.56396 0.81447,-12.74374 0,-17.3077 C 195.13413,117.29053 174.38387,99.884059 150,99.884059 c -21.72793,0 -40.71645,13.714241 -47.59684,34.376281 -1.77635,5.33437 -2.441465,9.62242 -2.441465,15.73966 0,6.11724 0.665115,10.40529 2.441465,15.73966 5.9704,17.92929 21.03801,30.73 39.84444,33.84993 3.99613,0.66294 13.89025,0.44907 17.66138,-0.38177 z"
       id="path194" />
    <path
       style="fill:none;stroke-width:11.5839"
       d="m 139.46485,174.29138 c -1.51718,-0.74805 -20.62527,-25.969 -21.14225,-27.90587 -0.42626,-1.59701 0.45046,-3.66879 2.04639,-4.8358 1.36415,-0.99752 3.8128,-0.99689 5.17548,0.001 0.55992,0.41016 4.37737,5.19431 8.48324,10.63144 4.10587,5.43712 7.59445,9.91753 7.7524,9.95645 0.15796,0.0389 7.34549,-8.02787 15.97229,-17.92622 9.66724,-11.09214 16.12103,-18.20715 16.82132,-18.54475 1.46124,-0.70444 2.41846,-0.69139 3.99008,0.0544 2.12498,1.00838 3.2392,3.87097 2.37912,6.11231 -0.4594,1.19717 -36.2024,41.77802 -37.35774,42.41415 -1.41081,0.77679 -2.60616,0.78914 -4.12033,0.0426 z"
       id="path270" />
  </g>
  <metadata
     id="metadata346">
    <rdf:RDF>
      <cc:Work
         rdf:about="">
        <dc:title>23CE74ED-8A2F-4E10-A310-96385B377176</dc:title>
      </cc:Work>
    </rdf:RDF>
  </metadata>
</svg>
